<svg xmlns="http://www.w3.org/2000/svg" viewBox="0 0 653 120" role="img" aria-label="MadMarketing"><rect x="0" y="12" width="96" height="96" rx="24.96" fill="#0029FF"/><path d="M30.70 82.08L20.42 82.08L20.42 38.78L36.40 38.78L41.92 55.63Q42.39 57.17 42.98 59.72Q43.58 62.26 44.19 65.17L44.19 65.17Q44.71 67.66 45.18 70.02L45.18 70.02Q45.61 67.69 46.14 65.17L46.14 65.17Q46.72 62.26 47.31 59.73Q47.91 57.20 48.38 55.63L48.38 55.63L53.81 38.78L69.82 38.78L69.82 82.08L59.51 82.08L59.51 63.42Q59.51 61.97 59.56 59.69Q59.62 57.41 59.69 54.73Q59.77 52.06 59.85 49.33L59.85 49.33Q59.88 48.25 59.88 47.23L59.88 47.23Q59.62 48.40 59.33 49.62L59.33 49.62Q58.63 52.38 57.95 54.99Q57.27 57.61 56.64 59.79Q56.02 61.97 55.58 63.42L55.58 63.42L49.42 82.08L40.85 82.08L34.60 63.42Q34.16 62.00 33.52 59.82Q32.88 57.64 32.19 55.02Q31.49 52.41 30.79 49.65L30.79 49.65Q30.56 48.69 30.33 47.76L30.33 47.76Q30.33 48.51 30.36 49.27L30.36 49.27Q30.41 51.97 30.49 54.67Q30.56 57.38 30.63 59.66Q30.70 61.94 30.70 63.42L30.70 63.42L30.70 82.08Z" fill="#fff"/><path d="M76.80000000000001 20.64C78.70080000000002 29.299200000000003 78.70080000000002 29.299200000000003 87.36000000000001 31.200000000000003C78.70080000000002 33.1008 78.70080000000002 33.1008 76.80000000000001 41.760000000000005C74.89920000000001 33.1008 74.89920000000001 33.1008 66.24000000000001 31.200000000000003C74.89920000000001 29.299200000000003 74.89920000000001 29.299200000000003 76.80000000000001 20.64Z" fill="#fff" opacity=".9"/><path d="M135.96 86L123.54 86L123.54 24.89L142.73 24.89L152.66 52.94Q153.27 54.91 154.07 58.03Q154.87 61.14 155.69 64.75L155.69 64.75Q156.51 68.28 157.21 71.60L157.21 71.60Q157.91 68.32 158.69 64.84L158.69 64.84Q159.51 61.23 160.31 58.07Q161.11 54.91 161.72 52.94L161.72 52.94L171.48 24.89L190.76 24.89L190.76 86L178.17 86L178.17 57.21Q178.17 55.20 178.23 52.20Q178.29 49.21 178.40 45.74Q178.50 42.28 178.58 38.75L178.58 38.75Q178.62 37.19 178.66 35.67L178.66 35.67Q178.21 37.40 177.76 39.16L177.76 39.16Q176.82 42.81 175.85 46.21Q174.89 49.62 174.03 52.47Q173.17 55.32 172.55 57.21L172.55 57.21L162.42 86L151.88 86L141.58 57.21Q140.97 55.32 140.11 52.51Q139.25 49.70 138.28 46.30Q137.32 42.89 136.33 39.24L136.33 39.24Q135.92 37.68 135.51 36.13L135.51 36.13Q135.51 37.31 135.55 38.59L135.55 38.59Q135.64 42.07 135.74 45.58Q135.84 49.09 135.90 52.10Q135.96 55.12 135.96 57.21L135.96 57.21L135.96 86ZM211.80 86.90L211.80 86.90Q207.46 86.90 203.99 85.36Q200.53 83.83 198.54 80.77Q196.55 77.71 196.55 73.16L196.55 73.16Q196.55 69.35 197.96 66.76Q199.38 64.18 201.82 62.62Q204.26 61.06 207.35 60.24Q210.45 59.42 213.86 59.09L213.86 59.09Q217.83 58.68 220.27 58.33Q222.71 57.99 223.84 57.23Q224.97 56.47 224.97 54.99L224.97 54.99L224.97 54.79Q224.97 52.82 224.15 51.46Q223.33 50.11 221.71 49.39Q220.09 48.68 217.79 48.68L217.79 48.68Q215.41 48.68 213.65 49.39Q211.89 50.11 210.78 51.30Q209.67 52.49 209.14 53.97L209.14 53.97L197.86 52.12Q199.05 48.10 201.80 45.31Q204.54 42.52 208.63 41.05Q212.71 39.57 217.83 39.57L217.83 39.57Q221.53 39.57 225.01 40.45Q228.50 41.33 231.27 43.18Q234.04 45.03 235.66 48.00Q237.28 50.97 237.28 55.12L237.28 55.12L237.28 86L225.63 86L225.63 79.64L225.22 79.64Q224.11 81.78 222.26 83.40Q220.42 85.02 217.81 85.96Q215.21 86.90 211.80 86.90ZM215.29 78.25L215.29 78.25Q218.20 78.25 220.40 77.10Q222.59 75.95 223.82 73.98Q225.05 72.01 225.05 69.59L225.05 69.59L225.05 64.63Q224.52 65.04 223.41 65.37Q222.30 65.70 220.95 65.94Q219.60 66.19 218.29 66.39Q216.97 66.60 215.95 66.72L215.95 66.72Q213.69 67.05 211.97 67.79Q210.25 68.53 209.30 69.74Q208.36 70.95 208.36 72.83L208.36 72.83Q208.36 74.60 209.26 75.81Q210.16 77.02 211.72 77.63Q213.28 78.25 215.29 78.25ZM262.01 86.78L262.01 86.78Q256.76 86.78 252.51 84.05Q248.27 81.32 245.81 76.05Q243.35 70.78 243.35 63.15L243.35 63.15Q243.35 55.32 245.89 50.07Q248.43 44.82 252.66 42.20Q256.88 39.57 261.97 39.57L261.97 39.57Q265.87 39.57 268.45 40.88Q271.03 42.20 272.63 44.12Q274.23 46.05 275.01 47.86L275.01 47.86L275.42 47.86L275.42 24.89L287.73 24.89L287.73 86L275.63 86L275.63 78.66L275.01 78.66Q274.19 80.50 272.57 82.37Q270.95 84.24 268.37 85.51Q265.78 86.78 262.01 86.78ZM265.82 76.89L265.82 76.89Q268.94 76.89 271.16 75.17Q273.37 73.45 274.52 70.35Q275.67 67.26 275.67 63.11L275.67 63.11Q275.67 58.93 274.54 55.87Q273.41 52.82 271.20 51.12Q268.98 49.41 265.82 49.41L265.82 49.41Q262.58 49.41 260.39 51.18Q258.20 52.94 257.09 56.02Q255.98 59.09 255.98 63.11L255.98 63.11Q255.98 67.13 257.11 70.25Q258.24 73.37 260.43 75.13Q262.63 76.89 265.82 76.89Z" fill="#0A0B10"/><path d="M323.32 85.06L323.32 85.06Q322.85 85.06 322.48 84.78Q322.10 84.50 322.10 83.56L322.10 83.56L321.16 26.22Q321.16 25.56 320.74 25.56Q320.31 25.56 320.13 26.12L320.13 26.12L306.31 77.92Q305.65 80.55 306.26 81.91Q306.87 83.27 309.13 83.65L309.13 83.65L310.26 83.84Q311.38 83.93 311.38 84.87L311.38 84.87Q311.38 86 309.60 86L309.60 86L296.34 86Q294.93 86 294.93 85.06L294.93 85.06Q294.93 84.03 296.44 83.84L296.44 83.84L297.75 83.65Q300.29 83.27 301.51 81.91Q302.74 80.55 303.39 77.92L303.39 77.92L317.59 24.52Q318.06 22.55 317.59 21.89Q317.12 21.23 315.05 20.86L315.05 20.86L313.45 20.58Q311.95 20.29 311.95 19.35L311.95 19.35Q311.95 18.32 313.64 18.32L313.64 18.32L324.92 18.32Q327.65 18.32 327.65 21.14L327.65 21.14L328.21 67.86Q328.21 68.52 328.63 68.56Q329.06 68.61 329.34 68.05L329.34 68.05L352.09 20.67Q353.21 18.32 355.66 18.32L355.66 18.32L367.03 18.32Q368.16 18.32 368.16 19.26L368.16 19.26Q368.16 20.20 366.56 20.48L366.56 20.48L364.31 20.86Q362.24 21.23 361.49 21.89Q360.73 22.55 360.26 24.52L360.26 24.52L349.36 79.80Q348.98 81.77 349.41 82.43Q349.83 83.09 351.71 83.46L351.71 83.46L353.31 83.74Q354.25 83.84 354.53 84.17Q354.81 84.50 354.81 84.87L354.81 84.87Q354.81 86 353.12 86L353.12 86L336.39 86Q335.07 86 335.07 85.06L335.07 85.06Q335.07 84.12 336.58 83.84L336.58 83.84L338.83 83.46Q340.90 83.09 341.70 82.43Q342.50 81.77 342.87 79.80L342.87 79.80L353.50 26.50Q353.68 25.84 353.21 25.70Q352.74 25.56 352.46 26.12L352.46 26.12L325.01 83.56Q324.64 84.50 324.22 84.78Q323.79 85.06 323.32 85.06ZM369.35 86.85L369.35 86.85Q365.97 86.85 364.09 83.93Q362.21 81.02 362.21 75.38L362.21 75.38Q362.21 70.02 363.71 64.61Q365.22 59.21 367.85 54.32Q370.48 49.43 373.82 45.67Q377.15 41.91 380.87 39.70Q384.58 37.50 388.25 37.50L388.25 37.50Q390.03 37.50 391.63 38.20Q393.23 38.91 394.26 40.41L394.26 40.41Q394.83 41.26 395.39 41.26L395.39 41.26Q395.95 41.26 396.52 40.41L396.52 40.41Q397.55 38.91 398.21 38.48Q398.87 38.06 399.43 38.06L399.43 38.06Q400.65 38.06 400.37 39.38L400.37 39.38L392.01 75.38Q390.60 81.49 393.89 81.49L393.89 81.49Q396.05 81.49 397.79 78.57Q399.53 75.66 401.31 69.55L401.31 69.55Q401.59 68.52 402.53 68.52L402.53 68.52Q403.19 68.52 403.38 69.08Q403.57 69.64 403.38 70.40L403.38 70.40Q401.59 79.23 398.59 83.04Q395.58 86.85 391.35 86.85L391.35 86.85Q387.68 86.85 386.13 83.74Q384.58 80.64 385.80 75.28L385.80 75.28L387.02 70.11Q387.21 69.46 386.79 69.36Q386.37 69.27 386.08 69.83L386.08 69.83Q380.91 79.33 376.92 83.09Q372.92 86.85 369.35 86.85ZM371.70 82.05L371.70 82.05Q373.96 82.05 376.68 79.33Q379.41 76.60 382.09 72.28Q384.77 67.95 387.02 62.97Q389.28 57.99 390.64 53.38Q392.01 48.78 392.01 45.58L392.01 45.58Q392.01 39.85 387.96 39.85L387.96 39.85Q385.52 39.85 382.79 42.05Q380.07 44.26 377.58 48.02Q375.09 51.78 373.07 56.53Q371.04 61.28 369.82 66.40Q368.60 71.52 368.60 76.41L368.60 76.41Q368.60 79.70 369.40 80.88Q370.20 82.05 371.70 82.05ZM414.91 86L411.06 86Q409.74 86 410.02 84.78L410.02 84.78L418.95 47.27Q419.42 45.20 419.10 44.03Q418.77 42.85 417.36 42.85L417.36 42.85Q415.66 42.85 413.64 45.34Q411.62 47.84 409.08 54.79L409.08 54.79Q408.71 56.01 407.77 56.01L407.77 56.01Q406.36 56.01 407.02 54.32L407.02 54.32Q409.08 47.84 411.39 44.17Q413.69 40.50 416.04 39Q418.39 37.50 420.36 37.50L420.36 37.50Q423.47 37.50 424.78 39.80Q426.10 42.10 424.88 47.37L424.88 47.37L423.84 51.78Q423.75 52.44 424.12 52.54Q424.50 52.63 424.78 52.07L424.78 52.07Q428.35 43.89 431.27 40.69Q434.18 37.50 437.94 37.50L437.94 37.50Q440.48 37.50 441.75 38.86Q443.02 40.22 443.02 42.57L443.02 42.57Q443.02 44.92 441.89 46.33Q440.76 47.74 438.98 47.74L438.98 47.74Q437.47 47.74 436.81 46.99Q436.16 46.24 435.83 45.25Q435.50 44.26 435.12 43.51Q434.75 42.76 433.90 42.76L433.90 42.76Q432.49 42.76 430.23 46.33Q427.98 49.90 425.39 55.97Q422.81 62.03 420.41 69.55Q418.01 77.07 416.23 84.97L416.23 84.97Q415.95 86 414.91 86L414.91 86ZM469.03 86.85L469.03 86.85Q464.23 86.85 461.22 79.04L461.22 79.04L456.05 65.41Q455.11 63.16 453.70 63.16L453.70 63.16Q452.29 63.16 451.26 65.51L451.26 65.51Q450.32 67.58 449.24 71.10Q448.16 74.63 447.22 78.76L447.22 78.76L445.81 84.97Q445.53 86 444.49 86L444.49 86L440.83 86Q439.51 86 439.79 84.78L439.79 84.78L453.52 25.84Q453.89 24.24 453.52 23.54Q453.14 22.83 451.82 22.74L451.82 22.74L449.00 22.46Q447.59 22.27 447.78 21.23L447.78 21.23Q447.97 20.39 449.10 20.20L449.10 20.20Q453.14 19.54 455.58 18.70Q458.03 17.85 459.34 16.72L459.34 16.72Q460.10 16.16 460.66 16.16L460.66 16.16Q461.88 16.16 461.60 17.57L461.60 17.57L452.86 54.79Q452.76 55.45 453.14 55.54Q453.52 55.64 453.80 55.07L453.80 55.07L456.90 49.53Q463.67 37.50 472.13 37.50L472.13 37.50Q475.32 37.50 477.20 39.19Q479.08 40.88 479.08 43.79L479.08 43.79Q479.08 48.40 474.62 53.01Q470.15 57.61 462.92 60.53L462.92 60.53Q460.66 61.37 461.60 63.53L461.60 63.53L467.05 77.45Q467.99 79.80 468.93 80.78Q469.87 81.77 471.28 81.77L471.28 81.77Q473.44 81.77 474.57 79.09Q475.70 76.41 476.55 69.74L476.55 69.74Q476.73 68.52 477.67 68.52L477.67 68.52Q478.71 68.52 478.61 70.40L478.61 70.40Q478.14 78.29 475.65 82.57Q473.16 86.85 469.03 86.85ZM454.64 58.93L454.64 58.93Q454.27 59.77 454.60 60.20Q454.93 60.62 455.77 60.43L455.77 60.43Q463.57 58.46 468.37 53.95Q473.16 49.43 473.16 43.98L473.16 43.98Q473.16 40.41 470.44 40.41L470.44 40.41Q467.24 40.41 463.01 45.34Q458.78 50.28 454.64 58.93ZM491.84 86.85L491.84 86.85Q486.86 86.85 483.85 82.94Q480.84 79.04 480.84 71.90L480.84 71.90Q480.84 65.70 483.05 59.59Q485.26 53.48 488.83 48.49Q492.40 43.51 496.68 40.50Q500.96 37.50 505.00 37.50L505.00 37.50Q509.42 37.50 511.34 39.61Q513.27 41.73 513.27 45.30L513.27 45.30Q513.27 49.53 510.31 53.71Q507.35 57.89 502.04 61.18Q496.73 64.47 489.58 66.07L489.58 66.07Q487.51 66.54 487.42 68.42L487.42 68.42Q487.33 69.08 487.33 69.78Q487.33 70.49 487.33 71.15L487.33 71.15Q487.33 76.51 489.16 79.23Q490.99 81.96 494.19 81.96L494.19 81.96Q497.76 81.96 501.10 78.67Q504.43 75.38 506.69 69.36L506.69 69.36Q506.97 68.52 507.82 68.52L507.82 68.52Q508.38 68.52 508.52 68.99Q508.66 69.46 508.48 70.11L508.48 70.11Q505.47 78.39 501.19 82.62Q496.91 86.85 491.84 86.85ZM488.36 62.50L488.36 62.50Q488.17 63.16 488.60 63.58Q489.02 64.00 489.68 63.82L489.68 63.82Q495.50 62.22 499.45 58.98Q503.40 55.73 505.42 51.69Q507.44 47.65 507.44 43.79L507.44 43.79Q507.44 39.85 504.34 39.85L504.34 39.85Q501.61 39.85 498.42 43.04Q495.22 46.24 492.50 51.41Q489.77 56.58 488.36 62.50ZM521.51 86.85L521.51 86.85Q518.32 86.85 516.53 84.31Q514.74 81.77 515.97 76.13L515.97 76.13L523.77 42.10Q524.05 40.69 522.64 40.69L522.64 40.69L519.07 40.69Q517.75 40.69 517.75 39.47L517.75 39.47Q517.75 38.81 518.22 38.44Q518.69 38.06 519.35 38.06L519.35 38.06L522.73 38.06Q524.90 38.06 525.27 36.09L525.27 36.09L527.53 26.03Q527.81 24.99 528.84 24.99L528.84 24.99L532.70 24.99Q534.01 24.99 533.73 26.22L533.73 26.22L531.38 36.65Q531.10 38.06 532.51 38.06L532.51 38.06L537.87 38.06Q539.47 38.06 539.47 39.28L539.47 39.28Q539.47 40.69 537.49 40.69L537.49 40.69L532.42 40.69Q530.35 40.69 529.88 42.67L529.88 42.67L521.98 77.07Q521.51 79.14 522.12 80.31Q522.73 81.49 524.24 81.49L524.24 81.49Q526.40 81.49 528.23 79.04Q530.07 76.60 532.13 69.74L532.13 69.74Q532.51 68.52 533.36 68.52L533.36 68.52Q534.01 68.52 534.20 69.08Q534.39 69.64 533.92 71.15L533.92 71.15Q532.13 77.54 530.02 80.92Q527.90 84.31 525.74 85.58Q523.58 86.85 521.51 86.85ZM556.17 29.13L556.17 29.13Q554.38 29.13 553.21 27.86Q552.03 26.59 552.03 24.81L552.03 24.81Q552.03 22.27 553.58 20.76Q555.13 19.26 557.11 19.26L557.11 19.26Q558.99 19.26 560.26 20.44Q561.53 21.61 561.53 23.49L561.53 23.49Q561.53 26.12 559.93 27.63Q558.33 29.13 556.17 29.13ZM548.46 86.94L548.46 86.94Q545.36 86.94 544.04 84.64Q542.73 82.33 543.95 77.07L543.95 77.07L550.90 47.27Q551.37 45.20 551.05 44.03Q550.72 42.85 549.31 42.85L549.31 42.85Q547.61 42.85 545.59 45.34Q543.57 47.84 541.03 54.79L541.03 54.79Q540.66 56.01 539.72 56.01L539.72 56.01Q538.31 56.01 538.97 54.32L538.97 54.32Q541.03 47.84 543.34 44.17Q545.64 40.50 547.99 39Q550.34 37.50 552.31 37.50L552.31 37.50Q555.60 37.50 556.92 39.80Q558.24 42.10 557.01 47.37L557.01 47.37L550.06 77.16Q549.59 79.23 549.92 80.41Q550.25 81.58 551.66 81.58L551.66 81.58Q553.35 81.58 555.37 79.09Q557.39 76.60 559.93 69.64L559.93 69.64Q560.30 68.42 561.24 68.42L561.24 68.42Q562.65 68.42 562.00 70.11L562.00 70.11Q560.02 76.51 557.63 80.22Q555.23 83.93 552.88 85.44Q550.53 86.94 548.46 86.94ZM568.55 84.78L568.55 84.78L577.48 47.27Q577.95 45.20 577.62 44.03Q577.29 42.85 575.88 42.85L575.88 42.85Q574.19 42.85 572.17 45.34Q570.14 47.84 567.61 54.79L567.61 54.79Q567.23 56.01 566.29 56.01L566.29 56.01Q564.88 56.01 565.54 54.32L565.54 54.32Q567.61 47.84 569.91 44.17Q572.21 40.50 574.56 39Q576.91 37.50 578.89 37.50L578.89 37.50Q581.99 37.50 583.30 39.80Q584.62 42.10 583.40 47.37L583.40 47.37L581.05 57.52Q580.95 58.18 581.33 58.27Q581.71 58.36 581.99 57.80L581.99 57.80Q585.65 50.19 589.04 45.72Q592.42 41.26 595.43 39.38Q598.44 37.50 600.88 37.50L600.88 37.50Q604.36 37.50 605.96 40.32Q607.56 43.14 605.96 48.96L605.96 48.96L598.81 76.22Q598.16 78.86 598.72 80.17Q599.28 81.49 600.79 81.49L600.79 81.49Q602.67 81.49 604.50 79.00Q606.33 76.51 608.31 69.55L608.31 69.55Q608.59 68.52 609.53 68.52L609.53 68.52Q610.28 68.52 610.42 69.08Q610.56 69.64 610.38 70.40L610.38 70.40Q608.59 76.79 606.52 80.41Q604.45 84.03 602.34 85.44Q600.22 86.85 598.06 86.85L598.06 86.85Q594.68 86.85 592.99 84.03Q591.29 81.21 592.80 75.28L592.80 75.28L600.04 48.02Q601.07 44.36 600.37 42.95Q599.66 41.54 598.34 41.54L598.34 41.54Q596.28 41.54 593.64 44.12Q591.01 46.71 588.29 51.17Q585.56 55.64 582.93 61.28Q580.30 66.92 578.18 73.03Q576.07 79.14 574.75 84.97L574.75 84.97Q574.47 86 573.43 86L573.43 86L569.58 86Q568.26 86 568.55 84.78ZM619.46 106.30L619.46 106.30Q612.04 106.30 608.18 103.58Q604.33 100.85 604.33 97.09L604.33 97.09Q604.33 93.80 606.92 90.65Q609.50 87.50 616.46 83.46L616.46 83.46Q617.49 82.90 617.63 82.19Q617.77 81.49 616.74 80.83L616.74 80.83Q614.11 79.14 613.59 76.88Q613.07 74.63 614.76 73.69L614.76 73.69L621.91 69.55Q622.85 69.08 622.90 68.38Q622.94 67.67 621.91 67.11L621.91 67.11Q619.37 65.60 618.10 62.83Q616.83 60.06 616.83 56.77L616.83 56.77Q616.83 51.69 619.32 47.32Q621.81 42.95 626.00 40.22Q630.18 37.50 635.35 37.50L635.35 37.50Q637.51 37.50 639.02 38.06L639.02 38.06Q640.14 38.44 640.71 37.31L640.71 37.31Q642.31 33.83 644.80 31.81Q647.29 29.79 650.01 29.79L650.01 29.79Q651.99 29.79 653.07 30.82Q654.15 31.86 654.15 33.64L654.15 33.64Q654.15 35.43 653.12 36.56Q652.08 37.68 650.48 37.68L650.48 37.68Q649.26 37.68 648.65 37.21Q648.04 36.74 647.57 36.27Q647.10 35.80 646.07 35.80L646.07 35.80Q644.00 35.80 642.78 38.15L642.78 38.15Q642.40 39 642.59 39.70Q642.78 40.41 643.34 41.16L643.34 41.16Q645.78 44.36 645.78 49.25L645.78 49.25Q645.78 53.66 643.86 57.66Q641.93 61.65 638.59 64.43Q635.26 67.20 630.93 68.14L630.93 68.14Q629.24 68.52 627.88 69.03Q626.51 69.55 624.45 70.87L624.45 70.87L620.69 73.12Q619.28 73.97 619.93 75.24Q620.59 76.51 623.60 77.63L623.60 77.63L631.68 80.64Q636.95 82.52 638.97 85.25Q640.99 87.97 640.99 91.64L640.99 91.64Q640.99 96.15 638.03 99.44Q635.07 102.73 630.18 104.52Q625.29 106.30 619.46 106.30ZM623.13 58.46L623.13 58.46Q623.13 62.78 624.40 64.71Q625.67 66.64 628.02 66.64L628.02 66.64Q631.03 66.64 633.61 63.86Q636.20 61.09 637.79 56.72Q639.39 52.35 639.39 47.65L639.39 47.65Q639.39 42.95 638.17 41.21Q636.95 39.47 634.50 39.47L634.50 39.47Q631.59 39.47 628.96 42.24Q626.33 45.02 624.73 49.34Q623.13 53.66 623.13 58.46ZM620.50 103.95L620.50 103.95Q624.16 103.95 627.36 102.73Q630.56 101.51 632.58 99.25Q634.60 97.00 634.60 93.90L634.60 93.90Q634.60 90.79 633.05 88.77Q631.50 86.75 626.98 85.06L626.98 85.06L625.20 84.40Q623.51 83.74 621.81 83.93Q620.12 84.12 618.62 84.87L618.62 84.87Q613.54 87.69 611.76 90.14Q609.97 92.58 609.97 95.49L609.97 95.49Q609.97 98.97 612.51 101.46Q615.05 103.95 620.50 103.95Z" fill="#0029FF"/></svg>